# xmcd
#
# Track frame offsets:
#	150
#	5557
#	27672
#	30567
#	58657
#	88355
#	106282
#	114122
#	128667
#	136875
#	161330
#	163360
#	189200
#	192330
#	207620
#	233585
#	255955
#	281787
#	287945
#	316115
#
# Disc length: 4245 seconds
#
# Revision: 0
# Processed by: cddbd v1.5.1PL0 Copyright (c) Steve Scherf et al.
# Submitted via: EasyCDDAExtractor 8.0.2.1
#
DISCID=19109314
DTITLE=Various Artist - Mix
DYEAR=2001
DGENRE=Chilled
TTITLE0=Hertz - Introduction
TTITLE1=Phlabby - England 71
TTITLE2=F.R.D.R.* - Wonderful George
TTITLE3=Hylozoid - Poppies
TTITLE4=>ON< - 2 x Born
TTITLE5=Mr.Bird - Charity Dub
TTITLE6=F.R.D.R.* - Paulo From Puerto Rico
TTITLE7=DJ Hari:San - Spot One
TTITLE8=F.R.D.R.* - DooWopDeeDooWah
TTITLE9=Vendor - When I'm With V
TTITLE10=Oska - Fukka
TTITLE11=Cheex - I Just Play
TTITLE12=C.A.B. - Dad
TTITLE13=C.A.B. vs R.S.T - Like An Ella
TTITLE14=Hertz - Classical Beats
TTITLE15=Phlabby - Horizontal
TTITLE16=Mr. Bird - Flavaindasky
TTITLE17=Wininhoo - The Mostly Drum At Night
TTITLE18=>ON< - The Naked Truth
TTITLE19=Hertz - Where's Benny
EXTD=
EXTT0=
EXTT1=
EXTT2=
EXTT3=
EXTT4=
EXTT5=
EXTT6=
EXTT7=
EXTT8=
EXTT9=
EXTT10=
EXTT11=
EXTT12=
EXTT13=
EXTT14=
EXTT15=
EXTT16=
EXTT17=
EXTT18=
EXTT19=
PLAYORDER=
